<?xml version="1.0" standalone="no"?>
<!DOCTYPE svg PUBLIC "-//W3C//DTD SVG 20010904//EN"
 "http://www.w3.org/TR/2001/REC-SVG-20010904/DTD/svg10.dtd">
<svg version="1.0" xmlns="http://www.w3.org/2000/svg"
 width="25.000000pt" height="25.000000pt" viewBox="0 0 512.000000 512.000000"
 preserveAspectRatio="xMidYMid meet">

<g transform="translate(0.000000,512.000000) scale(0.100000,-0.100000)"
fill="#000000" stroke="none">
<path d="M930 4190 l0 -160 -165 0 -165 0 0 -1470 0 -1470 165 0 165 0 0 -160
0 -160 1630 0 1630 0 0 160 0 160 165 0 165 0 -2 1143 -3 1142 -162 3 -163 2
0 160 0 160 -815 0 -815 0 0 165 0 165 -165 0 -165 0 0 160 0 160 -650 0 -650
0 0 -160z m1300 -325 l0 -165 165 0 165 0 0 -160 0 -160 815 0 815 0 0 -1145
0 -1145 -1630 0 -1630 0 0 1470 0 1470 650 0 650 0 0 -165z"/>
<path d="M3210 2885 l0 -165 165 0 165 0 0 -160 0 -160 -165 0 -165 0 0 -165
0 -165 165 0 165 0 0 -165 0 -165 -165 0 -165 0 0 -160 0 -160 165 0 165 0 0
160 0 160 163 2 162 3 3 163 2 162 -165 0 -165 0 0 165 0 165 165 0 165 0 0
160 0 160 -165 0 -165 0 0 165 0 165 -165 0 -165 0 0 -165z"/>
</g>
</svg>
