<?xml version="1.0" standalone="no"?>
<!DOCTYPE svg PUBLIC "-//W3C//DTD SVG 20010904//EN"
 "http://www.w3.org/TR/2001/REC-SVG-20010904/DTD/svg10.dtd">
<svg version="1.0" xmlns="http://www.w3.org/2000/svg"
 width="25.000000pt" height="25.000000pt" viewBox="0 0 133.000000 350.000000"
 preserveAspectRatio="xMidYMid meet">

<g transform="translate(0.000000,350.000000) scale(0.100000,-0.100000)"
fill="#000000" stroke="none">
<path d="M511 3491 c-29 -8 -39 -33 -33 -83 l4 -38 -61 0 -61 0 0 -60 0 -60
-60 0 -60 0 0 -180 0 -179 58 -3 57 -3 3 -57 3 -57 57 -3 57 -3 3 -57 3 -58
179 0 179 0 3 58 3 57 57 3 57 3 3 57 3 57 58 3 57 3 0 179 0 179 -57 3 -58 3
-3 57 -3 57 -57 3 -57 3 -3 58 -3 57 -139 0 c-76 0 -144 2 -152 4 -7 2 -24 1
-37 -3z m209 -175 c0 -40 -4 -55 -16 -60 -9 -3 -63 -6 -120 -6 l-104 0 0 -120
0 -120 -48 0 c-26 0 -53 5 -60 12 -8 8 -12 49 -12 120 l0 108 60 0 60 0 0 60
0 60 120 0 120 0 0 -54z"/>
<path d="M271 2531 c-29 -8 -39 -33 -33 -83 l4 -38 -61 0 -61 0 0 -60 0 -60
-60 0 -60 0 0 -480 0 -480 120 0 120 0 0 343 c0 264 3 347 13 361 10 13 24 17
57 14 l45 -3 5 -1015 5 -1015 115 0 115 0 3 644 c1 469 5 648 14 658 7 9 27
13 57 11 l46 -3 3 -658 2 -658 118 3 117 3 5 1008 c6 1120 -1 1030 75 1025
l40 -3 3 -358 2 -358 118 3 117 3 3 477 2 477 -57 3 -58 3 -3 57 -3 57 -57 3
-57 3 -3 58 -3 57 -379 0 c-208 0 -384 2 -392 4 -7 2 -24 1 -37 -3z m89 -175
c0 -61 -6 -66 -76 -66 l-44 0 0 -60 0 -60 -54 0 c-61 0 -66 6 -66 76 l0 44 60
0 60 0 0 60 0 60 60 0 60 0 0 -54z"/>
</g>
</svg>
