<?xml version="1.0" standalone="no"?>
<!DOCTYPE svg PUBLIC "-//W3C//DTD SVG 20010904//EN"
 "http://www.w3.org/TR/2001/REC-SVG-20010904/DTD/svg10.dtd">
<svg version="1.0" xmlns="http://www.w3.org/2000/svg"
 width="25.000000pt" height="25.000000pt" viewBox="0 0 512.000000 512.000000"
 preserveAspectRatio="xMidYMid meet">

<g transform="translate(0.000000,512.000000) scale(0.100000,-0.100000)"
fill="#000000" stroke="none">
<path d="M2340 4955 l0 -165 -167 -2 -168 -3 -3 -167 -2 -168 -165 0 -165 0 0
-165 0 -165 -165 0 -165 0 0 -170 0 -170 -170 0 -170 0 0 -165 0 -165 -165 0
-165 0 0 -165 0 -165 -167 -2 -168 -3 -3 -167 -2 -168 -165 0 -165 0 0 -165 0
-165 165 0 165 0 0 -1225 0 -1225 780 0 780 0 0 1000 0 1000 670 0 670 0 0
-1000 0 -1000 780 0 780 0 0 1225 0 1225 165 0 165 0 0 165 0 165 -165 0 -165
0 -2 168 -3 167 -167 3 -168 2 0 1000 0 1000 -500 0 -500 0 0 -335 0 -335
-165 0 -165 0 -2 168 -3 167 -167 3 -168 2 0 165 0 165 -220 0 -220 0 0 -165z
m440 -335 l0 -170 170 0 170 0 0 -165 0 -165 165 0 165 0 0 -170 0 -170 165 0
165 0 2 503 3 502 165 0 165 0 3 -832 2 -833 165 0 165 0 0 -170 0 -170 170 0
170 0 0 -165 0 -165 -170 0 -170 0 0 -1060 0 -1060 -442 2 -443 3 -3 1003 -2
1002 -1000 0 -1000 0 -2 -1002 -3 -1003 -442 -3 -443 -2 0 1060 0 1060 -170 0
-170 0 0 165 0 165 170 0 170 0 0 170 0 170 165 0 165 0 0 165 0 165 170 0
170 0 0 165 0 165 165 0 165 0 0 170 0 170 165 0 165 0 0 165 0 165 170 0 170
0 0 170 0 170 220 0 220 0 0 -170z"/>
</g>
</svg>
