<?xml version="1.0" standalone="no"?>
<!DOCTYPE svg PUBLIC "-//W3C//DTD SVG 20010904//EN"
 "http://www.w3.org/TR/2001/REC-SVG-20010904/DTD/svg10.dtd">
<svg version="1.0" xmlns="http://www.w3.org/2000/svg"
 width="25.000000pt" height="25.000000pt" viewBox="0 0 512.000000 512.000000"
 preserveAspectRatio="xMidYMid meet">

<g transform="translate(0.000000,512.000000) scale(0.100000,-0.100000)"
fill="#000000" stroke="none">
<path d="M1670 4955 l0 -165 -332 -2 -333 -3 -3 -167 -2 -168 -165 0 -165 0 0
-165 0 -165 -167 -2 -168 -3 -3 -332 -2 -333 -165 0 -165 0 0 -890 0 -890 165
0 165 0 2 -332 3 -333 168 -3 167 -2 0 -165 0 -165 165 0 165 0 2 -168 3 -167
333 -3 332 -2 0 -165 0 -165 890 0 890 0 0 165 0 165 333 2 332 3 3 168 2 167
165 0 165 0 0 165 0 165 168 2 167 3 3 333 2 332 165 0 165 0 0 890 0 890
-165 0 -165 0 -2 333 -3 332 -167 3 -168 2 0 165 0 165 -165 0 -165 0 -2 168
-3 167 -332 3 -333 2 0 165 0 165 -890 0 -890 0 0 -165z m330 -335 l0 -170
170 0 170 0 0 170 0 170 220 0 220 0 0 -170 0 -170 170 0 170 0 0 170 0 170
165 0 165 0 0 -170 0 -170 335 0 335 0 0 -165 0 -165 165 0 165 0 0 -335 0
-335 170 0 170 0 0 -220 0 -220 -167 -2 -168 -3 -3 -167 -2 -168 170 0 170 0
0 -500 0 -500 -170 0 -170 0 0 -335 0 -335 -165 0 -165 0 0 -165 0 -165 -335
0 -335 0 0 -170 0 -170 -165 0 -165 0 0 170 0 170 -170 0 -170 0 0 -170 0
-170 -220 0 -220 0 0 170 0 170 -170 0 -170 0 0 -170 0 -170 -165 0 -165 0 0
170 0 170 -335 0 -335 0 0 165 0 165 -165 0 -165 0 0 335 0 335 -170 0 -170 0
0 500 0 500 170 0 170 0 -2 168 -3 167 -167 3 -168 2 0 220 0 220 170 0 170 0
0 335 0 335 165 0 165 0 0 165 0 165 335 0 335 0 0 170 0 170 165 0 165 0 0
-170z"/>
<path d="M1670 4115 l0 -335 -165 0 -165 0 -2 -552 -3 -553 -332 -3 -333 -2 0
-165 0 -165 333 -2 332 -3 3 -497 2 -498 165 0 165 0 0 -335 0 -335 165 0 165
0 0 335 0 335 -165 0 -165 0 0 330 0 330 890 0 890 0 0 -330 0 -330 -165 0
-165 0 0 -335 0 -335 165 0 165 0 0 335 0 335 165 0 165 0 2 498 3 497 333 3
332 2 0 165 0 165 -332 2 -333 3 -3 553 -2 552 -165 0 -165 0 0 335 0 335
-165 0 -165 0 0 -335 0 -335 165 0 165 0 0 -720 0 -720 -890 0 -890 0 0 720 0
720 165 0 165 0 0 335 0 335 -165 0 -165 0 0 -335z"/>
</g>
</svg>
